<svg width="93" height="37" viewBox="0 0 93 37" fill="none" xmlns="http://www.w3.org/2000/svg">
<g clip-path="url(#clip0_6790_23622)">
<path fill-rule="evenodd" clip-rule="evenodd" d="M2.69464 26.8716V37H0.494644V26.2506L0.294311 26.0111L0.494644 25.8435V0H2.69464V14.3773L17.5449 2.13517L18.9443 3.83271L2.69464 17.2285V24.0036L18.1336 11.0917L19.545 12.7793L2.69464 26.8716Z" fill="#FBD42C"/>
<path d="M32.692 31H31.162C30.8447 31 30.686 30.8414 30.686 30.524V9.61402C30.686 9.29669 30.8447 9.13802 31.162 9.13802H41.736C42.0533 9.13802 42.212 9.29669 42.212 9.61402V10.838C42.212 11.1554 42.0533 11.314 41.736 11.314H33.508C33.2813 11.314 33.168 11.416 33.168 11.62V19.032C33.168 19.236 33.2813 19.338 33.508 19.338H40.784C41.1013 19.338 41.26 19.4967 41.26 19.814V21.038C41.26 21.3554 41.1013 21.514 40.784 21.514H33.508C33.2813 21.514 33.168 21.6274 33.168 21.854V30.524C33.168 30.8414 33.0093 31 32.692 31Z" fill="white"/>
<path d="M57.7851 31H50.5771C49.0131 31 47.7777 30.558 46.8711 29.674C45.9871 28.79 45.5451 27.5547 45.5451 25.968V18.692C45.5451 17.1054 45.9871 15.87 46.8711 14.986C47.7777 14.102 49.0131 13.66 50.5771 13.66H53.4331C54.9971 13.66 56.2211 14.102 57.1051 14.986C57.9891 15.87 58.4311 17.1054 58.4311 18.692V23.01C58.4311 23.35 58.2724 23.52 57.9551 23.52H48.3331C48.1064 23.52 47.9931 23.622 47.9931 23.826V25.9C47.9931 27.872 48.9451 28.858 50.8491 28.858H57.7851C58.1024 28.858 58.2611 29.0167 58.2611 29.334V30.558C58.2611 30.8527 58.1024 31 57.7851 31ZM48.3331 21.718H55.6771C55.9037 21.718 56.0171 21.6047 56.0171 21.378V18.76C56.0171 16.8107 55.0651 15.836 53.1611 15.836H50.8491C48.9451 15.836 47.9931 16.8107 47.9931 18.76V21.378C47.9931 21.6047 48.1064 21.718 48.3331 21.718Z" fill="white"/>
<path d="M64.6254 31H63.0954C62.7781 31 62.6194 30.8414 62.6194 30.524V7.57402C62.6194 7.25669 62.7781 7.09802 63.0954 7.09802H64.6254C64.9428 7.09802 65.1014 7.25669 65.1014 7.57402V15.462H65.2374C65.8041 14.2607 66.9601 13.66 68.7054 13.66H70.6094C72.1508 13.66 73.3521 14.102 74.2134 14.986C75.0748 15.87 75.5054 17.1054 75.5054 18.692V30.524C75.5054 30.8414 75.3468 31 75.0294 31H73.4994C73.1821 31 73.0234 30.8414 73.0234 30.524V18.794C73.0234 16.822 72.0714 15.836 70.1674 15.836H68.2634C67.2434 15.836 66.4614 16.108 65.9174 16.652C65.3734 17.196 65.1014 17.9667 65.1014 18.964V30.524C65.1014 30.8414 64.9428 31 64.6254 31Z" fill="white"/>
<path d="M86.6479 31H84.7439C83.2025 31 82.0012 30.558 81.1399 29.674C80.2785 28.79 79.8479 27.5547 79.8479 25.968V14.136C79.8479 13.8187 80.0065 13.66 80.3239 13.66H81.8539C82.1712 13.66 82.3299 13.8187 82.3299 14.136V25.866C82.3299 27.838 83.2705 28.824 85.1519 28.824H87.0899C88.1099 28.824 88.8919 28.552 89.4359 28.008C89.9799 27.464 90.2519 26.6934 90.2519 25.696V14.136C90.2519 13.8187 90.4105 13.66 90.7279 13.66H92.2579C92.5752 13.66 92.7339 13.8187 92.7339 14.136V30.524C92.7339 30.8414 92.5752 31 92.2579 31H90.7279C90.4105 31 90.2519 30.8414 90.2519 30.524V29.198H90.1159C89.5492 30.3994 88.3932 31 86.6479 31Z" fill="white"/>
</g>
<defs>
<clipPath id="clip0_6790_23622">
<rect width="93" height="37" fill="white"/>
</clipPath>
</defs>
</svg>
